<svg width="202" height="25" viewBox="0 0 202 25" fill="none" xmlns="http://www.w3.org/2000/svg" class="h-6 text-black dark:text-white"><path d="M0.480957 6C0.480957 2.68629 3.16725 0 6.48096 0H18.481C21.7947 0 24.481 2.68629 24.481 6V18C24.481 21.3137 21.7947 24 18.481 24H6.48096C3.16725 24 0.480957 21.3137 0.480957 18V6Z" fill="#836EF9"></path><path d="M7.47844 5.28362L7.47844 11.0148L9.19864 12.0008L7.47827 12.987L7.47827 18.7182L12.4782 21.584L17.4781 18.7182L17.4781 12.9866L15.7579 12.0007L17.4783 11.0147L17.4783 5.28308L12.4779 2.41732L7.47844 5.28362ZM12.1274 3.42366L12.1274 7.94789L8.18057 10.2105L8.18056 5.68623L12.1274 3.42366ZM12.8292 20.5781L12.8292 16.0535L16.7764 13.7912L16.7764 18.3159L12.8292 20.5781ZM16.4251 13.1879L12.4783 15.4501L8.53144 13.1879L9.90089 12.4031L12.4783 13.8803L15.0559 12.4031L16.4251 13.1879ZM12.4783 10.1208L9.9006 11.5982L8.53144 10.8134L12.4783 8.55113L16.4254 10.8134L15.056 11.5982L12.4783 10.1208Z" fill="white"></path><path d="M193.746 20.2882V8.5402H196.364V11.7742L196.056 10.8282C196.408 10.0362 196.958 9.43487 197.706 9.0242C198.468 8.61354 199.414 8.4082 200.544 8.4082V11.0262C200.426 10.9969 200.316 10.9822 200.214 10.9822C200.111 10.9675 200.008 10.9602 199.906 10.9602C198.864 10.9602 198.036 11.2682 197.42 11.8842C196.804 12.4855 196.496 13.3875 196.496 14.5902V20.2882H193.746Z" fill="currentColor"></path><path d="M185.692 20.4422C184.387 20.4422 183.243 20.1855 182.26 19.6722C181.292 19.1442 180.537 18.4255 179.994 17.5162C179.466 16.6069 179.202 15.5729 179.202 14.4142C179.202 13.2409 179.459 12.2069 179.972 11.3122C180.5 10.4029 181.219 9.69154 182.128 9.1782C183.052 8.66487 184.101 8.4082 185.274 8.4082C186.418 8.4082 187.437 8.65754 188.332 9.1562C189.227 9.65487 189.931 10.3589 190.444 11.2682C190.957 12.1775 191.214 13.2482 191.214 14.4802C191.214 14.5975 191.207 14.7295 191.192 14.8762C191.192 15.0229 191.185 15.1622 191.17 15.2942H181.38V13.4682H189.718L188.64 14.0402C188.655 13.3655 188.515 12.7715 188.222 12.2582C187.929 11.7449 187.525 11.3415 187.012 11.0482C186.513 10.7549 185.934 10.6082 185.274 10.6082C184.599 10.6082 184.005 10.7549 183.492 11.0482C182.993 11.3415 182.597 11.7522 182.304 12.2802C182.025 12.7935 181.886 13.4022 181.886 14.1062V14.5462C181.886 15.2502 182.047 15.8735 182.37 16.4162C182.693 16.9589 183.147 17.3769 183.734 17.6702C184.321 17.9635 184.995 18.1102 185.758 18.1102C186.418 18.1102 187.012 18.0075 187.54 17.8022C188.068 17.5969 188.537 17.2742 188.948 16.8342L190.422 18.5282C189.894 19.1442 189.227 19.6209 188.42 19.9582C187.628 20.2809 186.719 20.4422 185.692 20.4422Z" fill="currentColor"></path><path d="M171.257 20.2882V8.5402H173.875V11.7742L173.567 10.8282C173.919 10.0362 174.469 9.43487 175.217 9.0242C175.979 8.61354 176.925 8.4082 178.055 8.4082V11.0262C177.937 10.9969 177.827 10.9822 177.725 10.9822C177.622 10.9675 177.519 10.9602 177.417 10.9602C176.375 10.9602 175.547 11.2682 174.931 11.8842C174.315 12.4855 174.007 13.3875 174.007 14.5902V20.2882H171.257Z" fill="currentColor"></path><path d="M162.467 20.4422C161.264 20.4422 160.194 20.1855 159.255 19.6722C158.316 19.1442 157.576 18.4255 157.033 17.5162C156.49 16.6069 156.219 15.5729 156.219 14.4142C156.219 13.2409 156.49 12.2069 157.033 11.3122C157.576 10.4029 158.316 9.69154 159.255 9.1782C160.194 8.66487 161.264 8.4082 162.467 8.4082C163.684 8.4082 164.762 8.66487 165.701 9.1782C166.654 9.69154 167.395 10.3955 167.923 11.2902C168.466 12.1849 168.737 13.2262 168.737 14.4142C168.737 15.5729 168.466 16.6069 167.923 17.5162C167.395 18.4255 166.654 19.1442 165.701 19.6722C164.762 20.1855 163.684 20.4422 162.467 20.4422ZM162.467 18.0882C163.142 18.0882 163.743 17.9415 164.271 17.6482C164.799 17.3549 165.21 16.9295 165.503 16.3722C165.811 15.8149 165.965 15.1622 165.965 14.4142C165.965 13.6515 165.811 12.9989 165.503 12.4562C165.21 11.8989 164.799 11.4735 164.271 11.1802C163.743 10.8869 163.149 10.7402 162.489 10.7402C161.814 10.7402 161.213 10.8869 160.685 11.1802C160.172 11.4735 159.761 11.8989 159.453 12.4562C159.145 12.9989 158.991 13.6515 158.991 14.4142C158.991 15.1622 159.145 15.8149 159.453 16.3722C159.761 16.9295 160.172 17.3549 160.685 17.6482C161.213 17.9415 161.807 18.0882 162.467 18.0882Z" fill="currentColor"></path><path d="M150.938 20.2879V3.96387H153.688V20.2879H150.938Z" fill="currentColor"></path><path d="M142.478 20.4422C141.524 20.4422 140.652 20.2222 139.86 19.7822C139.082 19.3422 138.459 18.6822 137.99 17.8022C137.535 16.9075 137.308 15.7782 137.308 14.4142C137.308 13.0355 137.528 11.9062 137.968 11.0262C138.422 10.1462 139.038 9.49354 139.816 9.0682C140.593 8.6282 141.48 8.4082 142.478 8.4082C143.636 8.4082 144.656 8.65754 145.536 9.1562C146.43 9.65487 147.134 10.3515 147.648 11.2462C148.176 12.1409 148.44 13.1969 148.44 14.4142C148.44 15.6315 148.176 16.6949 147.648 17.6042C147.134 18.4989 146.43 19.1955 145.536 19.6942C144.656 20.1929 143.636 20.4422 142.478 20.4422ZM135.966 24.5562V8.5402H138.584V11.3122L138.496 14.4362L138.716 17.5602V24.5562H135.966ZM142.17 18.0882C142.83 18.0882 143.416 17.9415 143.93 17.6482C144.458 17.3549 144.876 16.9295 145.184 16.3722C145.492 15.8149 145.646 15.1622 145.646 14.4142C145.646 13.6515 145.492 12.9989 145.184 12.4562C144.876 11.8989 144.458 11.4735 143.93 11.1802C143.416 10.8869 142.83 10.7402 142.17 10.7402C141.51 10.7402 140.916 10.8869 140.388 11.1802C139.86 11.4735 139.442 11.8989 139.134 12.4562C138.826 12.9989 138.672 13.6515 138.672 14.4142C138.672 15.1622 138.826 15.8149 139.134 16.3722C139.442 16.9295 139.86 17.3549 140.388 17.6482C140.916 17.9415 141.51 18.0882 142.17 18.0882Z" fill="currentColor"></path><path d="M121.858 20.288L127.028 13.556L126.984 15.03L122.056 8.54004H125.114L128.568 13.16H127.402L130.878 8.54004H133.848L128.876 15.03L128.898 13.556L134.046 20.288H130.944L127.314 15.382L128.458 15.536L124.894 20.288H121.858Z" fill="currentColor"></path><path d="M111.933 11.2897H119.589V13.6437H111.933V11.2897ZM112.153 17.8897H120.843V20.2877H109.293V4.8877H120.535V7.2857H112.153V17.8897Z" fill="currentColor"></path><path d="M99.0077 20.4419C97.8784 20.4419 96.8591 20.1925 95.9497 19.6939C95.0551 19.1805 94.3511 18.4765 93.8377 17.5819C93.3244 16.6872 93.0677 15.6312 93.0677 14.4139C93.0677 13.1965 93.3244 12.1405 93.8377 11.2459C94.3511 10.3512 95.0551 9.65454 95.9497 9.15587C96.8591 8.6572 97.8784 8.40787 99.0077 8.40787C99.9904 8.40787 100.87 8.62787 101.648 9.06787C102.425 9.4932 103.041 10.1459 103.496 11.0259C103.95 11.9059 104.178 13.0352 104.178 14.4139C104.178 15.7779 103.958 16.9072 103.518 17.8019C103.078 18.6819 102.469 19.3419 101.692 19.7819C100.914 20.2219 100.02 20.4419 99.0077 20.4419ZM99.3377 18.0879C99.9977 18.0879 100.584 17.9412 101.098 17.6479C101.626 17.3545 102.044 16.9292 102.352 16.3719C102.674 15.8145 102.836 15.1619 102.836 14.4139C102.836 13.6512 102.674 12.9985 102.352 12.4559C102.044 11.8985 101.626 11.4732 101.098 11.1799C100.584 10.8865 99.9977 10.7399 99.3377 10.7399C98.6777 10.7399 98.0837 10.8865 97.5557 11.1799C97.0424 11.4732 96.6244 11.8985 96.3018 12.4559C95.9938 12.9985 95.8397 13.6512 95.8397 14.4139C95.8397 15.1619 95.9938 15.8145 96.3018 16.3719C96.6244 16.9292 97.0424 17.3545 97.5557 17.6479C98.0837 17.9412 98.6777 18.0879 99.3377 18.0879ZM102.902 20.2879V17.5159L103.012 14.3919L102.792 11.2679V3.96387H105.52V20.2879H102.902Z" fill="currentColor"></path><path d="M87.9991 20.2882V17.9122L87.8451 17.4062V13.2482C87.8451 12.4415 87.603 11.8182 87.119 11.3782C86.635 10.9235 85.9017 10.6962 84.9191 10.6962C84.2591 10.6962 83.6064 10.7989 82.9611 11.0042C82.3304 11.2095 81.795 11.4955 81.355 11.8622L80.2771 9.8602C80.9077 9.3762 81.6557 9.01687 82.521 8.7822C83.401 8.53287 84.3104 8.4082 85.2491 8.4082C86.9504 8.4082 88.263 8.81887 89.187 9.6402C90.1257 10.4469 90.5951 11.7009 90.5951 13.4022V20.2882H87.9991ZM84.3031 20.4422C83.4231 20.4422 82.653 20.2955 81.993 20.0022C81.333 19.6942 80.8197 19.2762 80.453 18.7482C80.101 18.2055 79.925 17.5969 79.925 16.9222C79.925 16.2622 80.0791 15.6682 80.3871 15.1402C80.7097 14.6122 81.2304 14.1942 81.9491 13.8862C82.6677 13.5782 83.6211 13.4242 84.8091 13.4242H88.2191V15.2502H85.007C84.0684 15.2502 83.4377 15.4042 83.1151 15.7122C82.7924 16.0055 82.6311 16.3722 82.6311 16.8122C82.6311 17.3109 82.8291 17.7069 83.2251 18.0002C83.6211 18.2935 84.171 18.4402 84.875 18.4402C85.5497 18.4402 86.1511 18.2862 86.6791 17.9782C87.2217 17.6702 87.6104 17.2155 87.8451 16.6142L88.307 18.2642C88.043 18.9535 87.5664 19.4889 86.8771 19.8702C86.2024 20.2515 85.3444 20.4422 84.3031 20.4422Z" fill="currentColor"></path><path d="M72.4765 8.4082C73.4152 8.4082 74.2512 8.59154 74.9845 8.9582C75.7325 9.32487 76.3192 9.88954 76.7445 10.6522C77.1699 11.4002 77.3825 12.3682 77.3825 13.5562V20.2882H74.6325V13.9082C74.6325 12.8669 74.3832 12.0895 73.8845 11.5762C73.4005 11.0629 72.7185 10.8062 71.8385 10.8062C71.1932 10.8062 70.6212 10.9382 70.1225 11.2022C69.6239 11.4662 69.2352 11.8622 68.9565 12.3902C68.6925 12.9035 68.5605 13.5562 68.5605 14.3482V20.2882H65.8105V8.5402H68.4285V11.7082L67.9665 10.7402C68.3772 9.9922 68.9712 9.4202 69.7485 9.0242C70.5405 8.61354 71.4499 8.4082 72.4765 8.4082Z" fill="currentColor"></path><path d="M57.0207 20.4422C55.818 20.4422 54.7474 20.1855 53.8087 19.6722C52.87 19.1442 52.1294 18.4255 51.5867 17.5162C51.044 16.6069 50.7727 15.5729 50.7727 14.4142C50.7727 13.2409 51.044 12.2069 51.5867 11.3122C52.1294 10.4029 52.87 9.69154 53.8087 9.1782C54.7474 8.66487 55.818 8.4082 57.0207 8.4082C58.238 8.4082 59.316 8.66487 60.2547 9.1782C61.208 9.69154 61.9487 10.3955 62.4767 11.2902C63.0194 12.1849 63.2907 13.2262 63.2907 14.4142C63.2907 15.5729 63.0194 16.6069 62.4767 17.5162C61.9487 18.4255 61.208 19.1442 60.2547 19.6722C59.316 20.1855 58.238 20.4422 57.0207 20.4422ZM57.0207 18.0882C57.6954 18.0882 58.2967 17.9415 58.8247 17.6482C59.3527 17.3549 59.7634 16.9295 60.0567 16.3722C60.3647 15.8149 60.5187 15.1622 60.5187 14.4142C60.5187 13.6515 60.3647 12.9989 60.0567 12.4562C59.7634 11.8989 59.3527 11.4735 58.8247 11.1802C58.2967 10.8869 57.7027 10.7402 57.0427 10.7402C56.368 10.7402 55.7667 10.8869 55.2387 11.1802C54.7254 11.4735 54.3147 11.8989 54.0067 12.4562C53.6987 12.9989 53.5447 13.6515 53.5447 14.4142C53.5447 15.1622 53.6987 15.8149 54.0067 16.3722C54.3147 16.9295 54.7254 17.3549 55.2387 17.6482C55.7667 17.9415 56.3607 18.0882 57.0207 18.0882Z" fill="currentColor"></path><path d="M31.103 20.2877V4.8877H33.457L40.189 16.1297H38.957L45.579 4.8877H47.933L47.955 20.2877H45.249L45.227 9.1337H45.799L40.167 18.5277H38.891L33.171 9.1337H33.831V20.2877H31.103Z" fill="currentColor"></path></svg>